# AST/ASF file generated using VICON BodyLanguage
# -----------------------------------------------
:version 1.10
:name VICON
:units
  mass 1.0
  length 0.45
  angle deg
:documentation
   .ast/.asf automatically generated from VICON data using
   VICON BodyBuilder and BodyLanguage model FoxedUp or BRILLIANT.MOD
:root
   order TX TY TZ RX RY RZ
   axis XYZ
   position 0 0 0  
   orientation 0 0 0 
:bonedata
  begin
     id 1 
     name lhipjoint
     direction 0.611804 -0.747784 0.257906 
     length 2.29243 
     axis 0 0 0  XYZ
  end
  begin
     id 2 
     name lfemur
     direction 0.34202 -0.939693 0  
     length 7.31159  
     axis 0 0 20  XYZ
    dof rx ry rz
    limits (-160.0 20.0)
           (-70.0 70.0)
           (-60.0 70.0)
  end
  begin
     id 3 
     name ltibia
     direction 0.34202 -0.939693 0   
     length 7.33391   
     axis 0 0 20   XYZ
    dof rx
    limits (-10.0 170.0)
  end
  begin
     id 4 
     name lfoot
     direction 0.122263 -0.335914 0.933924   
     length 1.76083   
     axis -90 7.62852e-016 20   XYZ
    dof rx rz
    limits (-45.0 90.0)
           (-70.0 20.0)
  end
  begin
     id 5 
     name ltoes
     direction 1.53533e-011 -4.2177e-011 1   
     length 0.879206   
     axis -90 7.62852e-016 20   XYZ
    dof rx
    limits (-90.0 20.0)
  end
  begin
     id 6 
     name rhipjoint
     direction -0.646469 -0.721248 0.248754   
     length 2.37677  
     axis 0 0 0  XYZ 
  end
  begin
     id 7 
     name rfemur
     direction -0.34202 -0.939693 0   
     length 7.18623   
     axis 0 0 -20   XYZ
    dof rx ry rz
    limits (-160.0 20.0)
           (-70.0 70.0)
           (-70.0 60.0)
  end
  begin
     id 8 
     name rtibia
     direction -0.34202 -0.939693 0   
     length 7.36567   
     axis 0 0 -20   XYZ
    dof rx
    limits (-10.0 170.0)
 end
 begin
     id 9 
     name rfoot
     direction -0.126681 -0.348054 0.928876   
     length 1.71902  
     axis -90 -7.62852e-016 -20   XYZ
    dof rx rz
    limits (-45.0 90.0)
           (-20.0 70.0)
  end
  begin
     id 10 
     name rtoes
     direction -1.53551e-011 -4.21898e-011 1   
     length 0.857792   
     axis -90 -7.62852e-016 -20   XYZ
    dof rx
    limits (-90.0 20.0)
  end
  begin
     id 11 
     name lowerback
     direction 0.0106509 0.999778 0.0181844   
     length 2.07668   
     axis 0 0 0   XYZ
    dof rx ry rz
    limits (-20.0 45.0)
           (-30.0 30.0)
           (-30.0 30.0)
  end
  begin
     id 12 
     name upperback
     direction -0.00456018 0.999989 -0.000590935   
     length 2.08011   
     axis 0 0 0   XYZ
    dof rx ry rz
    limits (-20.0 45.0)
           (-30.0 30.0)
           (-30.0 30.0)
  end
  begin
     id 13 
     name thorax
     direction -0.00910382 0.999916 -0.00923765   
     length 2.07397   
     axis 0 0 0   XYZ
    dof rx ry rz
    limits (-20.0 45.0)
           (-30.0 30.0)
           (-30.0 30.0)
  end
  begin
     id 14 
     name lowerneck
     direction 0.00171967 0.99778 0.0665733   
     length 1.67556   
     axis 0 0 0   XYZ
    dof rx ry rz
    limits (-20.0 45.0)
           (-30.0 30.0)
           (-30.0 30.0)
  end
  begin
     id 15 
     name upperneck
     direction -0.0143166 0.991302 -0.130828   
     length 1.68462   
     axis 0 0 0   XYZ
    dof rx ry rz
    limits (-20.0 45.0)
           (-30.0 30.0)
           (-30.0 30.0)
  end
  begin
     id 16
     name head
     direction -0.00606378 0.998665 -0.0512995  
     length 1.69269  
     axis 0 0 0   XYZ
    dof rx ry rz
    limits (-20.0 45.0)
           (-30.0 30.0)
           (-30.0 30.0)
  end
  begin
     id 17 
     name lclavicle
     direction 0.9638 0.179341 0.197297  
     length 4.12888  
     axis 0 0 0   XYZ
    dof ry rz
    limits (-20.0 10.0)
           (0.0 20.0)
  end
  begin
     id 18 
     name lhumerus
     direction 1 -4.48972e-011 -2.47351e-027   
     length 5.01834   
     axis -180 -30 -90   XYZ
    dof rx ry rz
    limits (-60.0 90.0)
           (-90.0 90.0)
           (-90.0 90.0)
  end
  begin
     id 19
     name lradius
     direction 1 -4.48965e-011 1.51591e-026   
     length 3.4869   
     axis -180 -30 -90   XYZ
    dof rx
    limits (-10.0 170.0)
  end
  begin
     id 20
     name lwrist
     direction 1 -4.48957e-011 2.70032e-026   
     length 1.74345   
     axis -1.81515e-014 90 90   XYZ
    dof ry
    limits (-180.0 0.0)
 end
  begin
     id 21 
     name lhand
     direction 1 -4.48951e-011 5.40064e-026   
     length 0.76799   
     axis -3.44607e-014 90 90   XYZ
    dof rx rz
    limits (-90.0 90.0)
           (-45.0 45.0)
  end
  begin
     id 22 
     name lfingers
     direction 1 -4.48971e-011 1.08013e-025   
     length 0.619174   
     axis -6.89214e-014 90 90   XYZ
    dof rx
    limits (0.0 90.0)
  end
  begin
     id 23
     name lthumb
     direction 0.707107 -6.34931e-011 0.707107   
     length 0.889013   
     axis -90 45 2.85299e-015   XYZ
    dof rx rz
    limits (-45.0 45.0)
           (-45.0 45.0)
  end
  begin
     id 24 
     name rclavicle
     direction -0.961409 0.252588 0.109054   
     length 4.04305  
     axis 0 0 0   XYZ 
    dof ry rz
    limits (-10.0 20.0)
           (-20.0 0.0)
  end
  begin
     id 25 
     name rhumerus
     direction -1 -4.4897e-011 1.33872e-017  
     length 4.70164   
     axis -180 30 90   XYZ
    dof rx ry rz
    limits (-90.0 60.0)
           (-90.0 90.0)
           (-90.0 90.0)
  end
  begin
     id 26 
     name rradius
     direction -1 -4.48954e-011 1.83844e-026   
     length 3.49911   
     axis -180 30 90   XYZ
    dof rx
    limits (-10.0 170.0)
  end
  begin
     id 27 
     name rwrist
     direction -1 -4.49008e-011 2.70032e-026   
     length 1.74955   
     axis -1.81515e-014 -90 -90   XYZ
    dof ry
    limits (-180.0 0.0)
  end
  begin
     id 28
     name rhand
     direction -1 -4.48916e-011 5.40064e-026   
     length 0.739335   
     axis -3.44607e-014 -90 -90   XYZ
    dof rx rz
    limits (-90.0 90.0)
           (-45.0 45.0)
  end
  begin
     id 29
     name rfingers
     direction -1 -4.48987e-011 1.08013e-025   
     length 0.596071   
     axis -6.89214e-014 -90 -90   XYZ
    dof rx
    limits (0.0 90.0)
  end
  begin
     id 30
     name rthumb
     direction -0.707107 -6.34935e-011 0.707107   
     length 0.855843   
     axis -90 -45 -2.85299e-015   XYZ
    dof rx rz
    limits (-45.0 45.0)
           (-45.0 45.0)
  end
:hierarchy
  begin
    root lhipjoint rhipjoint lowerback
    lhipjoint lfemur
    lfemur ltibia
    ltibia lfoot
    lfoot ltoes
    rhipjoint rfemur
    rfemur rtibia
    rtibia rfoot
    rfoot rtoes
    lowerback upperback
    upperback thorax
    thorax lowerneck lclavicle rclavicle
    lowerneck upperneck
    upperneck head
    lclavicle lhumerus
    lhumerus lradius
    lradius lwrist
    lwrist lhand lthumb
    lhand lfingers
    rclavicle rhumerus
    rhumerus rradius
    rradius rwrist
    rwrist rhand rthumb
    rhand rfingers
  end

#!OML:ASF I:\salsa\salsa 7_09\Patient 1\Session 1\dancermale.ASF
:FULLY-SPECIFIED
:DEGREES
657
root -2.31465 16.6072 2.93665 -35.8555 -86.5901 394.273
lowerback 0.885132 -0.301311 -3.12411
upperback 0.596103 -0.435656 -1.09162
thorax 0.129186 -0.230163 0.635592
lowerneck -6.95126 0.75939 -0.0905793
upperneck 16.7486 1.27808 -2.72269
head 6.23836 0.307394 -0.764799
rclavicle -5.73913e-015 -7.95139e-016
rhumerus -17.4692 17.1736 -99.2266
rradius 83.0861
rwrist -28.7664
rhand -39.2922 -21.6988
rfingers 7.12502
rthumb -12.2854 -51.3179
lclavicle -5.73913e-015 -7.95139e-016
lhumerus 0.681397 -13.861 76.5423
lradius 64.0328
lwrist 65.4675
lhand -18.1353 50.9264
lfingers 7.12502
lthumb 8.13978 80.7496
rfemur -12.0697 -1.81517 22.2793
rtibia 43.693
rfoot -26.2258 -10.6389
rtoes 3.23431
lfemur -41.302 24.9343 -26.9939
ltibia 48.1405
lfoot 8.33811 7.58379
ltoes 16.1461
658
root -2.44192 16.6063 2.94764 -33.6416 -85.8625 391.547
lowerback 1.56383 -0.38305 -3.36636
upperback 0.539945 -0.579427 -1.07815
thorax -0.30125 -0.296462 0.791853
lowerneck -6.78579 0.796313 0.00277655
upperneck 16.7592 1.34947 -2.95399
head 6.21602 0.329387 -0.849047
rclavicle -1.09627e-014 -1.17283e-014
rhumerus -18.6482 17.6594 -99.6169
rradius 82.8142
rwrist -28.8199
rhand -39.2539 -21.5043
rfingers 7.12502
rthumb -12.2484 -51.1256
lclavicle -1.09627e-014 -1.17283e-014
lhumerus 2.29869 -12.846 76.9162
lradius 62.6059
lwrist 64.9442
lhand -17.6122 51.3807
lfingers 7.12502
lthumb 8.64458 81.1837
rfemur -11.8743 -3.06692 21.7074
rtibia 45.5467
rfoot -25.4576 -10.2512
rtoes 0.75001
lfemur -38.4976 23.0567 -26.2851
ltibia 46.6821
lfoot 5.19103 6.54446
ltoes 10.2537
659
root -2.58681 16.5962 2.97514 -30.3392 -85.4043 388.251
lowerback 1.42392 -0.453089 -3.14878
upperback 0.377498 -0.665967 -1.05618
thorax -0.388279 -0.336173 0.693777
lowerneck -6.43416 0.854382 0.29566
upperneck 16.5917 1.45389 -3.3998
head 6.10837 0.368035 -1.03184
rclavicle -6.15922e-015 -4.57205e-015
rhumerus -19.872 18.1535 -100.12
rradius 82.5657
rwrist -28.363
rhand -38.9598 -21.623
rfingers 7.12502
rthumb -11.9649 -51.2611
lclavicle -6.15922e-015 -4.57205e-015
lhumerus 3.67565 -11.7182 77.6738
lradius 61.0856
lwrist 63.6239
lhand -17.1659 51.9079
lfingers 7.12502
lthumb 9.07526 81.6926
rfemur -12.5557 -4.29146 21.1853
rtibia 48.0049
rfoot -24.0572 -9.45495
rtoes -3.30818
lfemur -36.3157 20.5433 -25.5041
ltibia 44.988
lfoot 2.36184 6.14345
ltoes 4.81083
660
root -2.71313 16.5846 3.00706 -29.9696 -84.7129 387.433
lowerback 1.92018 -0.536628 -3.12093
upperback 0.364148 -0.799839 -1.12341
thorax -0.676753 -0.399685 0.617304
lowerneck -6.39437 0.970623 0.563849
upperneck 16.6352 1.638 -3.76962
head 6.12358 0.444356 -1.18091
rclavicle 5.38272e-015 1.39149e-015
rhumerus -20.9716 18.8109 -100.66
rradius 82.4123
rwrist -27.945
rhand -38.6656 -20.7567
rfingers 7.12502
rthumb -11.6812 -50.4111
lclavicle 5.38272e-015 1.39149e-015
lhumerus 5.05822 -10.5026 78.7719
lradius 59.3668
lwrist 61.65
lhand -17.0848 52.0276
lfingers 7.12502
lthumb 9.15351 81.8089
rfemur -13.3501 -5.89173 20.1312
rtibia 51.3538
rfoot -21.8982 -7.68853
rtoes -6.03866
lfemur -33.926 18.0792 -25.1018
ltibia 43.295
lfoot 0.0775594 6.1249
ltoes 0.358767
661
root -2.82072 16.5699 3.03909 -31.6284 -83.8466 388.421
lowerback 2.77453 -0.598241 -3.30906
upperback 0.468407 -0.926083 -1.24588
thorax -1.04344 -0.45991 0.610343
lowerneck -6.58066 1.10768 0.66577
upperneck 16.7448 1.86043 -4.02785
head 6.19916 0.535131 -1.2637
rclavicle -7.70601e-015 4.96962e-015
rhumerus -21.9847 19.518 -101.187
rradius 82.3492
rwrist -27.0747
rhand -38.5967 -19.8288
rfingers 7.12502
rthumb -11.6147 -49.4869
lclavicle -7.70601e-015 4.96962e-015
lhumerus 6.46026 -9.26649 80.1504
lradius 57.5008
lwrist 59.493
lhand -17.1201 51.7181
lfingers 7.12502
lthumb 9.11947 81.5009
rfemur -14.5065 -7.74833 18.6205
rtibia 55.5567
rfoot -18.7308 -4.93284
rtoes -6.02475
lfemur -31.7313 16.1215 -25.2206
ltibia 41.8229
lfoot -1.82396 6.34046
ltoes -0.925409
662
root -2.91299 16.5554 3.06711 -33.8989 -82.8329 390.014
lowerback 3.73189 -0.646612 -3.70985
upperback 0.615816 -1.05346 -1.38407
thorax -1.41946 -0.520361 0.709821
lowerneck -6.73832 1.22701 0.770356
upperneck 16.7484 2.07046 -4.36778
head 6.2377 0.616151 -1.37312
rclavicle -5.62188e-016 1.46107e-014
rhumerus -23.0987 19.9746 -101.749
rradius 82.4559
rwrist -25.6957
rhand -38.723 -19.7084
rfingers 7.12502
rthumb -11.7365 -49.3596
lclavicle -5.62188e-016 1.46107e-014
lhumerus 7.82875 -7.92498 81.799
lradius 55.5093
lwrist 57.6019
lhand -16.8486 51.1545
lfingers 7.12502
lthumb 9.38141 80.9258
rfemur -16.3827 -9.66774 16.8789
rtibia 60.6674
rfoot -14.4753 -1.97508
rtoes -4.0229
lfemur -29.7382 14.5644 -25.7162
ltibia 40.4255
lfoot -3.36986 6.57744
ltoes -0.435811
663
root -2.99275 16.5479 3.08588 -34.0253 -81.8246 389.691
lowerback 4.51044 -0.722973 -3.96043
upperback 0.705363 -1.21046 -1.48807
thorax -1.75435 -0.594938 0.762515
lowerneck -6.78115 1.34166 0.870275
upperneck 16.6207 2.2604 -4.64378
head 6.21418 0.696413 -1.46247
rclavicle -1.71607e-015 -9.54166e-015
rhumerus -24.2687 20.0454 -102.33
rradius 82.6559
rwrist -25.1358
rhand -38.4273 -19.0697
rfingers 7.12502
rthumb -11.4513 -48.737
lclavicle -1.71607e-015 -9.54166e-015
lhumerus 9.2127 -6.41532 83.7256
lradius 53.3034
lwrist 56.0939
lhand -16.4722 50.4711
lfingers 7.12502
lthumb 9.7446 80.2257
rfemur -18.7212 -11.5268 15.3896
rtibia 65.3582
rfoot -8.55799 0.633397
rtoes 2.71793
lfemur -28.1484 13.3949 -26.1026
ltibia 39.1538
lfoot -4.64649 6.29461
ltoes -1.38232
664
root -3.06426 16.5419 3.09217 -32.4664 -80.9577 387.955
lowerback 4.9978 -0.80242 -3.97688
upperback 0.710448 -1.34626 -1.53883
thorax -2.01718 -0.658926 0.736199
lowerneck -6.8221 1.472 0.875877
upperneck 16.567 2.46004 -4.76718
head 6.21204 0.785533 -1.48723
rclavicle -6.33937e-015 -2.75317e-014
rhumerus -25.432 19.9153 -102.84
rradius 82.8794
rwrist -25.6492
rhand -37.8144 -18.0706
rfingers 7.12502
rthumb -10.8602 -47.7698
lclavicle -6.33937e-015 -2.75317e-014
lhumerus 10.6617 -4.74378 85.8446
lradius 50.7087
lwrist 54.5141
lhand -16.1162 49.7382
lfingers 7.12502
lthumb 10.088 79.4764
rfemur -21.4338 -13.298 14.3854
rtibia 69.7368
rfoot -3.60566 2.56008
rtoes 7.55509
lfemur -27.0341 12.7023 -26.2097
ltibia 38.1469
lfoot -5.70117 5.35061
ltoes -3.8181
665
root -3.13183 16.5345 3.08821 -30.3438 -80.2927 385.831
lowerback 5.18042 -0.839619 -3.84566
upperback 0.704583 -1.39807 -1.53192
thorax -2.12622 -0.683626 0.676846
lowerneck -6.91072 1.61918 1.0037
upperneck 16.6081 2.68314 -4.97637
head 6.25174 0.883797 -1.55804
rclavicle 4.468e-015 2.83268e-015
rhumerus -26.5097 19.913 -103.269
rradius 83.1682
rwrist -26.3687
rhand -37.6094 -17.7054
rfingers 7.12502
rthumb -10.6625 -47.4149
lclavicle 4.468e-015 2.83268e-015
lhumerus 12.2774 -2.8543 88.1006
lradius 47.63
lwrist 52.2812
lhand -15.7221 49.0996
lfingers 7.12502
lthumb 10.4682 78.819
rfemur -24.1955 -14.7095 13.802
rtibia 73.5303
rfoot 0.78018 4.02585
rtoes 15.9063
lfemur -26.2807 12.4026 -26.1162
ltibia 37.4191
lfoot -6.60633 4.29105
ltoes -6.04778
